<svg xmlns="http://www.w3.org/2000/svg" xmlns:xlink="http://www.w3.org/1999/xlink" version="1.1" x="0px" y="0px" viewBox="0 0 100 125" style="enable-background:new 0 0 100 100;" xml:space="preserve"><path d="M56.68,67.65c0.27,1.07-0.37,2.16-1.44,2.44c-1.71,0.44-3.48,0.66-5.24,0.66c-11.58,0-21-9.42-21-21  c0-10.88,8.16-19.87,18.98-20.9c1.1-0.1,2.08,0.7,2.18,1.8c0.11,1.1-0.7,2.08-1.8,2.18C39.6,33.67,33,40.94,33,49.75  c0,9.37,7.63,17,17,17c1.43,0,2.85-0.18,4.24-0.54C55.31,65.94,56.4,66.58,56.68,67.65z M86.5,56.96  c-3.53,6.35-10.23,10.3-17.5,10.3c-11.03,0-20-8.97-20-20s8.97-20,20-20c1.52,0,3.02,0.17,4.45,0.5c0.74,0.17,1.31,0.74,1.49,1.47  s-0.07,1.5-0.64,1.99c-2.9,2.48-4.57,6.09-4.57,9.9c0,7.74,6.78,13.97,14.75,12.88c0.75-0.11,1.49,0.23,1.92,0.85  C86.83,55.48,86.87,56.3,86.5,56.96z M80.84,58.03c-8.49-0.94-15.11-8.16-15.11-16.9c0-3.58,1.12-7.01,3.16-9.87  C60.12,31.32,53,38.47,53,47.26c0,8.82,7.18,16,16,16C73.56,63.26,77.85,61.32,80.84,58.03z M50,73.75c-1.1,0-2,0.9-2,2V83  c0,1.1,0.9,2,2,2s2-0.9,2-2v-7.25C52,74.65,51.1,73.75,50,73.75z M50,25.75c1.1,0,2-0.9,2-2V17c0-1.1-0.9-2-2-2s-2,0.9-2,2v6.75  C48,24.85,48.9,25.75,50,25.75z M30.08,32.9c0.39,0.39,0.9,0.59,1.41,0.59s1.02-0.2,1.41-0.59c0.78-0.78,0.78-2.05,0-2.83  l-4.82-4.82c-0.78-0.78-2.05-0.78-2.83,0s-0.78,2.05,0,2.83L30.08,32.9z M26.01,50c0-1.1-0.9-2-2-2H17c-1.1,0-2,0.9-2,2s0.9,2,2,2  h7.01C25.11,52,26.01,51.1,26.01,50z M30.34,66.85l-5.08,5.08c-0.78,0.78-0.78,2.05,0,2.83c0.39,0.39,0.9,0.59,1.41,0.59  s1.02-0.2,1.41-0.59l5.08-5.08c0.78-0.78,0.78-2.05,0-2.83C32.38,66.06,31.12,66.06,30.34,66.85z"/><text x="0" y="115" fill="#000000" font-size="5px" font-weight="bold" font-family="'Helvetica Neue', Helvetica, Arial-Unicode, Arial, Sans-serif">Created by rizal anggara putra</text><text x="0" y="120" fill="#000000" font-size="5px" font-weight="bold" font-family="'Helvetica Neue', Helvetica, Arial-Unicode, Arial, Sans-serif">from the Noun Project</text></svg>