<?xml version="1.0" standalone="no"?>
<!DOCTYPE svg PUBLIC "-//W3C//DTD SVG 20010904//EN"
 "http://www.w3.org/TR/2001/REC-SVG-20010904/DTD/svg10.dtd">
<svg version="1.0" xmlns="http://www.w3.org/2000/svg"
 width="49.000000pt" height="39.000000pt" viewBox="0 0 49.000000 39.000000"
 preserveAspectRatio="xMidYMid meet">

<g transform="translate(0.000000,39.000000) scale(0.100000,-0.100000)"
fill="#000000" stroke="none">
<path d="M252 320 c0 -14 2 -19 5 -12 2 6 2 18 0 25 -3 6 -5 1 -5 -13z"/>
<path d="M150 302 c0 -6 10 -18 22 -26 17 -12 20 -18 10 -28 -7 -7 -12 -27
-12 -45 0 -47 37 -83 86 -83 42 0 39 12 -3 16 -37 4 -76 49 -67 77 9 32 34 57
56 57 10 0 18 5 18 10 0 13 -16 13 -42 -1 -16 -9 -24 -7 -44 12 -13 12 -24 17
-24 11z"/>
<path d="M304 286 c-39 -17 -46 -28 -46 -73 0 -49 30 -78 81 -78 24 0 47 8 60
19 23 21 19 36 -8 36 -10 0 -26 9 -36 20 -15 17 -16 24 -6 46 11 24 8 44 -7
44 -4 -1 -21 -7 -38 -14z m29 -26 c-9 -33 6 -70 33 -82 18 -8 21 -14 12 -20
-23 -14 -68 -8 -88 12 -28 28 -25 64 6 89 33 26 44 27 37 1z"/>
<path d="M110 200 c0 -5 9 -10 19 -10 11 0 23 5 26 10 4 6 -5 10 -19 10 -14 0
-26 -4 -26 -10z"/>
<path d="M160 120 c-12 -23 2 -27 19 -6 8 9 8 16 2 20 -6 4 -15 -3 -21 -14z"/>
<path d="M252 80 c0 -14 2 -19 5 -12 2 6 2 18 0 25 -3 6 -5 1 -5 -13z"/>
</g>
</svg>
